<?xml version="1.0" encoding="UTF-8" standalone="no"?>
<!-- Created with Inkscape (http://www.inkscape.org/) -->

<svg
   xmlns:dc="http://purl.org/dc/elements/1.1/"
   xmlns:cc="http://creativecommons.org/ns#"
   xmlns:rdf="http://www.w3.org/1999/02/22-rdf-syntax-ns#"
   xmlns:svg="http://www.w3.org/2000/svg"
   xmlns="http://www.w3.org/2000/svg"
   xmlns:sodipodi="http://sodipodi.sourceforge.net/DTD/sodipodi-0.dtd"
   xmlns:inkscape="http://www.inkscape.org/namespaces/inkscape"
   width="128"
   height="128"
   viewBox="0 0 128 128"
   id="svg2"
   version="1.1"
   inkscape:version="0.91 r13725"
   sodipodi:docname="favicon.svg">
  <defs
     id="defs4">
    <inkscape:path-effect
       effect="bend_path"
       id="path-effect4163"
       is_visible="true"
       bendpath="m 19.414161,988.3622 89.171679,0"
       prop_scale="1"
       scale_y_rel="false"
       vertical="false" />
  </defs>
  <sodipodi:namedview
     id="base"
     pagecolor="#ffffff"
     bordercolor="#666666"
     borderopacity="1.0"
     inkscape:pageopacity="0.0"
     inkscape:pageshadow="2"
     inkscape:zoom="4"
     inkscape:cx="40.322772"
     inkscape:cy="55.057358"
     inkscape:document-units="px"
     inkscape:current-layer="layer1"
     showgrid="false"
     units="px"
     inkscape:snap-text-baseline="true"
     inkscape:window-width="1535"
     inkscape:window-height="876"
     inkscape:window-x="65"
     inkscape:window-y="24"
     inkscape:window-maximized="1" />
  <metadata
     id="metadata7">
    <rdf:RDF>
      <cc:Work
         rdf:about="">
        <dc:format>image/svg+xml</dc:format>
        <dc:type
           rdf:resource="http://purl.org/dc/dcmitype/StillImage" />
        <dc:title />
      </cc:Work>
    </rdf:RDF>
  </metadata>
  <g
     inkscape:label="Layer 1"
     inkscape:groupmode="layer"
     id="layer1"
     transform="translate(0,-924.36216)">
    <rect
       style="opacity:0.87000002;fill:#448e52;fill-opacity:1;stroke:#ffb656;stroke-width:6;stroke-linecap:round;stroke-linejoin:round;stroke-miterlimit:4;stroke-dasharray:none;stroke-opacity:1"
       id="rect4136"
       width="121.3219"
       height="90.071899"
       x="3.3390503"
       y="943.32623" />
    <path
       sodipodi:type="inkscape:offset"
       inkscape:radius="2.1523438"
       inkscape:original="M 22.140625 953.18555 C 20.321943 953.18555 19.414062 953.89549 19.414062 955.20898 C 19.414062 956.6235 20.321943 957.32812 22.140625 957.32812 L 27.597656 957.32812 L 27.597656 1005.9297 L 22.140625 1005.9297 C 20.321943 1005.9297 19.414062 1006.6338 19.414062 1007.9473 C 19.414062 1009.3619 20.321943 1010.0703 22.140625 1010.0703 L 39.318359 1010.0703 C 41.137042 1010.0703 42.044922 1009.3619 42.044922 1007.9473 C 42.044922 1006.6338 41.137041 1005.9297 39.318359 1005.9297 L 31.738281 1005.9297 L 31.738281 984.71094 L 45.076172 984.71094 C 52.755049 988.24725 57.202418 993.70215 66.09375 1010.0703 L 71.851562 1010.0703 C 73.670244 1010.0703 74.578125 1009.3619 74.578125 1007.9473 C 74.578125 1006.6338 73.670242 1005.9297 71.851562 1005.9297 L 68.71875 1005.9297 C 60.534684 991.68342 57.707181 987.94229 51.341797 983.59766 C 60.738316 980.36444 65.386719 975.51668 65.386719 968.94922 C 65.386719 960.46204 56.999892 953.18555 47.199219 953.18555 L 22.140625 953.18555 z M 31.738281 957.32812 L 47.199219 957.32812 C 54.473946 957.32812 61.244141 962.78538 61.244141 968.84766 C 61.244141 975.31408 53.159523 980.56836 43.257812 980.56836 L 31.738281 980.56836 L 31.738281 957.32812 z M 76.242188 983.07227 C 74.948435 983.07227 74.302734 983.57539 74.302734 984.50977 C 74.302734 985.51602 74.948434 986.01953 76.242188 986.01953 L 80.125 986.01953 L 80.125 1020.5918 L 76.242188 1020.5918 C 74.948435 1020.5918 74.302734 1021.0929 74.302734 1022.0273 C 74.302734 1023.0335 74.948434 1023.5371 76.242188 1023.5371 L 108.58594 1023.5371 L 108.58594 1012.0371 C 108.58594 1010.7434 108.08477 1010.0977 107.15039 1010.0977 C 106.14415 1010.0977 105.63867 1010.7434 105.63867 1012.0371 L 105.63867 1020.5918 L 83.072266 1020.5918 L 83.072266 1003.9883 L 93.494141 1003.9883 L 93.494141 1007.2227 C 93.494141 1008.5164 93.995704 1009.1621 95.001953 1009.1621 C 95.936329 1009.1621 96.441406 1008.5164 96.441406 1007.2227 L 96.441406 997.80664 C 96.441406 996.51289 95.936328 995.86719 95.001953 995.86719 C 93.995704 995.86719 93.494141 996.51289 93.494141 997.80664 L 93.494141 1001.043 L 83.072266 1001.043 L 83.072266 986.01953 L 104.13086 986.01953 L 104.13086 993.0625 C 104.13086 994.35625 104.63398 995.00391 105.56836 995.00391 C 106.5746 995.00391 107.07812 994.35625 107.07812 993.0625 L 107.07812 983.07227 L 76.242188 983.07227 z "
       style="font-style:normal;font-variant:normal;font-weight:normal;font-stretch:normal;font-size:40px;line-height:125%;font-family:'Nimbus Mono L';-inkscape-font-specification:'Nimbus Mono L, Normal';text-align:start;letter-spacing:0px;word-spacing:0px;writing-mode:lr-tb;text-anchor:start;fill:#f9f9f9;fill-opacity:1;stroke:none;stroke-width:1px;stroke-linecap:butt;stroke-linejoin:miter;stroke-opacity:1"
       id="path4338"
       d="m 22.140625,951.0332 c -1.189404,0 -2.345162,0.2031 -3.339844,0.95118 -0.994681,0.74807 -1.539062,2.07196 -1.539062,3.2246 0,1.16774 0.509662,2.50901 1.513672,3.28907 1.004009,0.78006 2.177929,0.98242 3.365234,0.98242 l 3.304687,0 0,44.29683 -3.304687,0 c -1.1871,0 -2.339932,0.1995 -3.335937,0.9454 -0.996006,0.7458 -1.542969,2.0719 -1.542969,3.2246 0,1.1677 0.50863,2.5076 1.511719,3.289 1.003088,0.7815 2.178391,0.9864 3.367187,0.9864 l 17.177734,0 c 1.188797,0 2.364099,-0.2049 3.367188,-0.9864 1.003089,-0.7814 1.511719,-2.1213 1.511719,-3.289 0,-1.1527 -0.546963,-2.4788 -1.542969,-3.2246 -0.996006,-0.7459 -2.148838,-0.9454 -3.335938,-0.9454 l -5.427734,0 0,-16.91402 10.617187,0 c 3.418666,1.62409 6.048214,3.55899 8.962891,7.08594 3.017577,3.65147 6.310734,9.00848 10.732422,17.14848 a 2.152559,2.152559 0 0 0 1.890625,1.125 l 5.757812,0 c 1.188797,0 2.364099,-0.2049 3.367188,-0.9864 1.003089,-0.7814 1.511719,-2.1213 1.511719,-3.289 0,-1.1527 -0.546963,-2.4788 -1.542969,-3.2246 -0.996006,-0.7459 -2.148838,-0.9454 -3.335938,-0.9454 l -1.908203,0 c -6.380139,-11.03682 -9.864699,-15.88267 -14.46875,-19.66597 3.195605,-1.43156 5.99695,-3.04321 7.966797,-5.09766 2.670881,-2.78559 4.097656,-6.27292 4.097656,-10.06445 0,-9.90511 -9.473835,-17.91602 -20.339843,-17.91602 l -25.058594,0 z m 11.75,8.44727 13.308594,0 c 3.099158,0 6.173558,1.19371 8.390625,3.00195 2.217067,1.80824 3.501953,4.13532 3.501953,6.36524 0,2.33622 -1.462149,4.63289 -4.302735,6.48242 -2.840585,1.84952 -6.961103,3.08594 -11.53125,3.08594 l -9.367187,0 0,-18.93555 z m 42.351563,21.43945 c -0.925881,0 -1.88194,0.15013 -2.746094,0.79883 -0.864154,0.6487 -1.345703,1.82804 -1.345703,2.79102 0,0.9635 0.442363,2.15091 1.314453,2.83007 0.87209,0.67917 1.851246,0.83203 2.777344,0.83204 l 1.730468,0 0,30.26762 -1.730468,0 c -0.924761,0 -1.881294,0.149 -2.746094,0.7968 -0.8648,0.6479 -1.345703,1.8281 -1.345703,2.791 0,0.9635 0.442399,2.1509 1.314453,2.8301 0.872054,0.6792 1.851196,0.8321 2.777344,0.8321 l 32.343752,0 a 2.152559,2.152559 0 0 0 2.15234,-2.1524 l 0,-11.5 c 0,-0.9248 -0.14901,-1.8813 -0.79687,-2.7461 -0.64787,-0.8647 -1.82804,-1.3457 -2.79102,-1.3457 -0.9635,0 -2.15011,0.4411 -2.83008,1.3125 -0.67996,0.8714 -0.83398,1.8521 -0.83398,2.7793 l 0,6.4024 -18.261721,0 0,-12.2989 6.117188,0 0,1.0821 c 0,0.925 0.1517,1.9026 0.830078,2.7753 0.678378,0.8728 1.866574,1.3165 2.830078,1.3165 0.96298,0 2.141473,-0.4803 2.791016,-1.3438 0.649543,-0.8635 0.800781,-1.8211 0.800781,-2.748 l 0,-9.41606 c 0,-0.92696 -0.151242,-1.88452 -0.800781,-2.74805 -0.64954,-0.86352 -1.828036,-1.34375 -2.791016,-1.34375 -0.963504,0 -2.151703,0.44365 -2.830078,1.31641 -0.678375,0.87276 -0.830078,1.85037 -0.830078,2.77539 l 0,1.08398 -6.117188,0 0,-10.71874 16.753911,0 0,4.89062 c 0,0.92588 0.151,1.8818 0.79882,2.74609 0.64783,0.8643 1.82653,1.34766 2.79102,1.34766 0.9649,0 2.15375,-0.44414 2.83203,-1.31641 0.67828,-0.87226 0.83008,-1.85124 0.83008,-2.77734 l 0,-9.99023 a 2.152559,2.152559 0 0 0 -2.15235,-2.15235 l -30.835932,0 z" />
  </g>
</svg>
